# xmcd CD database file
#
# Track frame offsets:
#	150
#	14289
#	29406
#	46140
#	60051
#	75126
#	89316
#	101385
#	114870
#	127203
#	144774
#	160650
#	172500
#	186630
#	203118
#	220434
#
# Disc length: 3124 seconds
#
# Revision: 0
# Processed by: cddbd v1.5.1PL2 Copyright (c) Steve Scherf et al.
# Submitted via: CDex 1.51
#
DISCID=be0c3210
DTITLE=various_artists - Country bez hranic 1.
DYEAR=1998
DGENRE=Country
TTITLE0=Trava z Tennessee
TTITLE1=Kamen
TTITLE2=Houslovy kral
TTITLE3=He Loves You
TTITLE4=Down at the Twist and Shout
TTITLE5=Blue Kentucky Girl
TTITLE6=Jambalaya
TTITLE7=Don`t Tell Me What To Do
TTITLE8=Pet chlapu
TTITLE9=Tak ti mavam
TTITLE10=Radio a ja
TTITLE11=Usvit je fer
TTITLE12=Nehledej mou adresu
TTITLE13=Posledni kovboj
TTITLE14=Reknu Vam
TTITLE15=Az prijde ten den
EXTD=YEAR: 1998
EXTT0=
EXTT1=
EXTT2=
EXTT3=
EXTT4=
EXTT5=
EXTT6=
EXTT7=
EXTT8=
EXTT9=
EXTT10=
EXTT11=
EXTT12=
EXTT13=
EXTT14=
EXTT15=
PLAYORDER=
